<?xml version="1.0" encoding="utf-8"?>
<svg xmlns="http://www.w3.org/2000/svg" width="17" height="18" viewBox="0 0 17 18">
    <g fill="none" fill-rule="evenodd">
        <g fill="#1D1D1B" fill-rule="nonzero">
            <g>
                <g>
                    <g>
                        <path d="M3.805 17.065H.281V5.715h3.524v11.35zM2.041 4.167C.914 4.167 0 3.234 0 2.107S.914.065 2.041.065c1.127 0 2.041.915 2.041 2.042 0 1.127-.914 2.06-2.04 2.06zm14.955 12.898H13.48V11.54c0-1.317-.026-3.005-1.832-3.005-1.832 0-2.113 1.43-2.113 2.91v5.62h-3.52V5.715h3.38v1.549h.049c.47-.892 1.62-1.833 3.335-1.833C16.344 5.43 17 7.78 17 10.83v6.234h-.004z" transform="translate(-1302 -4519) translate(0 4481) translate(1302 38)"/>
                    </g>
                </g>
            </g>
        </g>
    </g>
</svg>
