<?xml version="1.0" encoding="UTF-8"?>
<svg width="21px" height="17px" viewBox="0 0 21 17" version="1.1" xmlns="http://www.w3.org/2000/svg" xmlns:xlink="http://www.w3.org/1999/xlink">
    <g id="Page-1" stroke="none" stroke-width="1" fill="none" fill-rule="evenodd">
        <g id="twitter" fill="#1D1D1B" fill-rule="nonzero">
            <path d="M21,2.01253846 C20.2190625,2.35384615 19.3869375,2.58007692 18.519375,2.68992308 C19.411875,2.159 20.0930625,1.32469231 20.4133125,0.319076923 C19.5811875,0.813384615 18.6624375,1.16253846 17.6833125,1.35738462 C16.8931875,0.519153846 15.7670625,0 14.5385625,0 C12.1550625,0 10.2361875,1.92753846 10.2361875,4.29053846 C10.2361875,4.63053846 10.2650625,4.95746154 10.3359375,5.26869231 C6.75675,5.09476923 3.5896875,3.38561538 1.462125,0.782 C1.0906875,1.42407692 0.8728125,2.159 0.8728125,2.95015385 C0.8728125,4.43569231 1.640625,5.75253846 2.785125,6.51492308 C2.0934375,6.50184615 1.414875,6.30176923 0.84,5.98661538 C0.84,5.99969231 0.84,6.01669231 0.84,6.03369231 C0.84,8.11815385 2.3323125,9.84953846 4.28925,10.2483846 C3.9388125,10.3438462 3.556875,10.3896154 3.1605,10.3896154 C2.884875,10.3896154 2.606625,10.3739231 2.3454375,10.3163846 C2.90325,12.0150769 4.486125,13.2639231 6.36825,13.3044615 C4.9035,14.4460769 3.0436875,15.1339231 1.0303125,15.1339231 C0.67725,15.1339231 0.338625,15.1182308 0,15.0750769 C1.9070625,16.3003846 4.1671875,17 6.6045,17 C14.52675,17 18.858,10.4615385 18.858,4.794 C18.858,4.60438462 18.8514375,4.42130769 18.84225,4.23953846 C19.6966875,3.63538462 20.414625,2.88084615 21,2.01253846 Z" id="Path"></path>
        </g>
    </g>
</svg>