<?xml version="1.0" encoding="utf-8"?>
<svg xmlns="http://www.w3.org/2000/svg" xmlns:xlink="http://www.w3.org/1999/xlink" width="109" height="27" viewBox="0 0 109 27">
    <defs>
        <path id="rtv5pywrna" d="M1.68 1.03c-.453.413-.681.924-.681 1.533 0 .608.228 1.119.681 1.533.459.416 1.023.625 1.691.625.663 0 1.224-.209 1.682-.625.459-.414.689-.925.689-1.533 0-.609-.23-1.12-.689-1.533C4.595.613 4.034.404 3.371.404c-.668 0-1.232.209-1.691.626z"/>
        <path id="wooi9cbztc" d="M0 8c0 4.418 3.581 8 8 8 4.419 0 8-3.582 8-8 0-4.419-3.581-8-8-8-4.419 0-8 3.581-8 8z"/>
        <path id="1l9mqywmwe" d="M1.91 1.9C.637 3.163 0 4.697 0 6.5c0 1.803.637 3.336 1.91 4.601C3.185 12.367 4.713 13 6.5 13c1.767 0 3.3-.633 4.6-1.899.19-.208.285-.454.285-.74 0-.288-.095-.534-.285-.74-.207-.191-.453-.286-.74-.286s-.533.095-.74.286c-.867.865-1.906 1.299-3.12 1.299-1.04 0-1.955-.317-2.745-.95-.79-.632-1.304-1.442-1.545-2.43h9.75c.294 0 .54-.103.74-.31.2-.21.3-.453.3-.73 0-1.803-.638-3.337-1.914-4.6C9.813.633 8.284 0 6.501 0 4.713 0 3.185.633 1.91 1.9zm1.845 1.129c.79-.632 1.704-.949 2.746-.949 1.039 0 1.953.317 2.74.949.789.634 1.377 1.556 1.582 2.608H2.175c.175-1.007.79-1.974 1.58-2.608z"/>
        <path id="owuhaphvtg" d="M.285.302C.094.506 0 .744 0 1.014v16.973c0 .27.094.507.285.71C.476 18.9.714 19 1 19c.283 0 .52-.1.712-.302.192-.204.287-.442.287-.71V1.013c0-.27-.095-.508-.287-.712C1.52.101 1.283 0 1 0 .714 0 .476.1.285.302z"/>
        <path id="fehgeubici" d="M.287.29C.095.481 0 .718 0 1s.095.518.287.71C.48 1.903.718 2 1 2c.28 0 .516-.097.71-.29.193-.192.29-.428.29-.71S1.903.481 1.71.29C1.516.097 1.28 0 1 0 .718 0 .48.097.287.29z"/>
        <path id="89pmlj8qyk" d="M.299.311C.099.52 0 .763 0 1.04v10.92c0 .278.099.52.299.73.199.207.432.31.701.31.266 0 .499-.103.698-.31.201-.21.302-.452.302-.73V1.04c0-.277-.101-.52-.302-.729C1.499.103 1.266 0 1 0 .731 0 .498.103.299.311z"/>
        <path id="oo09umbcxm" d="M11.046.773c-.192.21-.287.454-.287.73v.703C9.555 1.043 8.133.462 6.497.462c-1.722 0-3.197.634-4.424 1.904C.844 3.63.23 5.169.23 6.976c0 1.805.614 3.342 1.843 4.608 1.227 1.268 2.702 1.903 4.424 1.903 1.636 0 3.058-.581 4.262-1.743v1.743c0 1.217-.414 2.258-1.243 3.127-.825.868-1.833 1.302-3.019 1.302-1.17 0-2.172-.434-3.007-1.302-.203-.191-.442-.286-.718-.286-.274 0-.513.095-.714.286-.183.207-.274.455-.274.741 0 .287.09.535.274.742C3.28 19.366 4.76 20 6.498 20c1.719 0 3.194-.634 4.422-1.903 1.23-1.267 1.845-2.803 1.845-4.61V1.504c0-.277-.097-.521-.289-.73-.193-.208-.432-.312-.714-.312-.286 0-.524.104-.716.311zm-7.57 9.328c-.827-.868-1.24-1.91-1.24-3.126s.413-2.257 1.24-3.126c.826-.869 1.832-1.302 3.021-1.302 1.186 0 2.194.433 3.019 1.302.83.87 1.243 1.91 1.243 3.126 0 1.215-.414 2.258-1.243 3.126-.825.868-1.833 1.302-3.019 1.302-1.19 0-2.195-.434-3.021-1.302z"/>
        <path id="9s4q71ip5o" d="M1.23.302c-.199.204-.298.442-.298.712v16.973c0 .27.1.507.298.71.2.202.45.303.749.303.295 0 .542-.1.744-.302.2-.204.3-.442.3-.71v-5.322c0-1.181.43-2.195 1.293-3.039.861-.845 1.91-1.267 3.15-1.267 1.237 0 2.285.422 3.147 1.267.864.844 1.297 1.858 1.297 3.04v5.32c0 .27.098.507.298.71.2.202.448.303.746.303.296 0 .544-.1.745-.302.201-.204.301-.442.301-.71v-5.322c0-1.756-.642-3.25-1.924-4.483-1.28-1.232-2.817-1.85-4.61-1.85-1.707 0-3.19.566-4.443 1.696V1.014c0-.27-.1-.508-.3-.712C2.52.101 2.273 0 1.979 0 1.68 0 1.43.1 1.23.302z"/>
        <path id="d2l3fweuhq" d="M4.124.005C3.74.048 3.46.28 3.34.658c-.045.135-.068.295-.068.47v2.784H.96C.358 3.912 0 4.299 0 4.9c0 .6.357.958.962.958H3.27v6.58c0 1.352.338 2.446.975 3.22C4.933 16.525 5.979 17 7.303 17c1.679 0 2.957-.692 3.585-2.086.067-.146.111-.316.111-.48 0-.6-.382-1.012-.897-1.012-.379 0-.605.194-.763.436-.446.765-1.029 1.2-1.946 1.2-1.368 0-2.172-.94-2.172-2.547V5.858H7.53c.605 0 .962-.358.962-.958s-.357-.988-.962-.988H5.22V1.129c0-.664-.325-1.086-.876-1.124C4.309 0 4.269 0 4.233 0c-.036 0-.078 0-.109.005z"/>
        <path id="5kr4jp3d5s" d="M4.125.005c-.384.043-.665.276-.787.653-.045.135-.067.295-.067.47v2.784H.96C.358 3.912 0 4.299 0 4.9c0 .6.357.958.962.958H3.27v6.58c0 1.352.34 2.446.975 3.22C4.932 16.525 5.979 17 7.303 17c1.68 0 2.957-.692 3.584-2.086.068-.146.113-.316.113-.48 0-.6-.384-1.012-.897-1.012-.38 0-.606.194-.764.436-.447.765-1.03 1.2-1.946 1.2-1.368 0-2.172-.94-2.172-2.547V5.858H7.53c.605 0 .961-.358.961-.958s-.356-.988-.96-.988H5.22V1.129c0-.664-.324-1.086-.876-1.124C4.309 0 4.269 0 4.232 0c-.036 0-.076 0-.107.005z"/>
    </defs>
    <g fill="none" fill-rule="evenodd">
        <g>
            <g>
                <g>
                    <g transform="translate(-70 -36) translate(69 36)">
                        <mask id="gnuxlnii2b" fill="#fff">
                            <use xlink:href="#rtv5pywrna"/>
                        </mask>
                        <path fill="#E40428" d="M-4 9.721L10.742 9.721 10.742 -4.596 -4 -4.596z" mask="url(#gnuxlnii2b)"/>
                    </g>
                    <g transform="translate(-70 -36) translate(69 36) translate(5 4)">
                        <mask id="thuh6yvbfd" fill="#fff">
                            <use xlink:href="#wooi9cbztc"/>
                        </mask>
                        <use fill="#D8D8D8" xlink:href="#wooi9cbztc"/>
                        <path fill="#E40428" d="M-4.706 20.706L20.706 20.706 20.706 -4.706 -4.706 -4.706z" mask="url(#thuh6yvbfd)"/>
                    </g>
                    <g transform="translate(-70 -36) translate(69 36) translate(42 7)">
                        <mask id="hfenfa318f" fill="#fff">
                            <use xlink:href="#1l9mqywmwe"/>
                        </mask>
                        <path fill="#E40428" d="M-4.643 17.643L17.643 17.643 17.643 -4.643 -4.643 -4.643z" mask="url(#hfenfa318f)"/>
                    </g>
                    <g transform="translate(-70 -36) translate(69 36) translate(58 1)">
                        <mask id="cstt4amz3h" fill="#fff">
                            <use xlink:href="#owuhaphvtg"/>
                        </mask>
                        <path fill="#E40428" d="M-5 23.75L7 23.75 7 -4.75 -5 -4.75z" mask="url(#cstt4amz3h)"/>
                    </g>
                    <g transform="translate(-70 -36) translate(69 36) translate(64 2)">
                        <mask id="a691nq21uj" fill="#fff">
                            <use xlink:href="#fehgeubici"/>
                        </mask>
                        <path fill="#E40428" d="M-5 7L7 7 7 -5 -5 -5z" mask="url(#a691nq21uj)"/>
                    </g>
                    <g transform="translate(-70 -36) translate(69 36) translate(64 7)">
                        <mask id="jfbtmerg8l" fill="#fff">
                            <use xlink:href="#89pmlj8qyk"/>
                        </mask>
                        <path fill="#E40428" d="M-5 17.643L7 17.643 7 -4.643 -5 -4.643z" mask="url(#jfbtmerg8l)"/>
                    </g>
                    <g transform="translate(-70 -36) translate(69 36) translate(69 7)">
                        <mask id="ji6kxrpkrn" fill="#fff">
                            <use xlink:href="#oo09umbcxm"/>
                        </mask>
                        <path fill="#E40428" d="M-4.413 24.762L17.408 24.762 17.408 -4.3 -4.413 -4.3z" mask="url(#ji6kxrpkrn)"/>
                    </g>
                    <g transform="translate(-70 -36) translate(69 36) translate(84 1)">
                        <mask id="rm323a1pop" fill="#fff">
                            <use xlink:href="#9s4q71ip5o"/>
                        </mask>
                        <path fill="#E40428" d="M-3.733 23.75L18.667 23.75 18.667 -4.75 -3.733 -4.75z" mask="url(#rm323a1pop)"/>
                    </g>
                    <g transform="translate(-70 -36) translate(69 36) translate(99 3)">
                        <mask id="zcfun1pkpr" fill="#fff">
                            <use xlink:href="#d2l3fweuhq"/>
                        </mask>
                        <path fill="#E40428" d="M-4.583 21.722L15.583 21.722 15.583 -4.722 -4.583 -4.722z" mask="url(#zcfun1pkpr)"/>
                    </g>
                    <g transform="translate(-70 -36) translate(69 36) translate(29 3)">
                        <mask id="4tgy3m4m4t" fill="#fff">
                            <use xlink:href="#5kr4jp3d5s"/>
                        </mask>
                        <path fill="#E40428" d="M-4.583 21.722L15.583 21.722 15.583 -4.722 -4.583 -4.722z" mask="url(#4tgy3m4m4t)"/>
                    </g>
                </g>
            </g>
        </g>
    </g>
</svg>
