<?xml version="1.0" encoding="utf-8"?>
<svg xmlns="http://www.w3.org/2000/svg" width="25" height="17" viewBox="0 0 25 17">
    <g fill="none" fill-rule="evenodd">
        <g fill="#1D1D1B" fill-rule="nonzero">
            <g>
                <g>
                    <g>
                        <path d="M23.714 2.66C23.436 1.613 22.617.788 21.576.508 19.691 0 12.13 0 12.13 0S4.57 0 2.684.508C1.644.788.824 1.613.547 2.66.04 4.558.04 8.517.04 8.517s0 3.96.506 5.857c.278 1.047 1.097 1.838 2.137 2.118C4.57 17 12.13 17 12.13 17s7.56 0 9.446-.508c1.04-.28 1.86-1.07 2.138-2.118.505-1.897.505-5.857.505-5.857s0-3.96-.505-5.857zM9.657 12.112v-7.19l6.32 3.595-6.32 3.595z" transform="translate(-1346 -4519) translate(0 4481) translate(1302 38) translate(44)"/>
                    </g>
                </g>
            </g>
        </g>
    </g>
</svg>
